<svg xmlns="http://www.w3.org/2000/svg" viewBox="0 0 52.98 49.27"><defs><style>.cls-1{fill:#010101;}</style></defs><g id="Layer_2" data-name="Layer 2"><g id="Layer_1-2" data-name="Layer 1"><g id="LOGO_IX" data-name="LOGO IX"><polygon class="cls-1" points="10.31 14.19 0 17.07 0.06 49.27 10.38 49.25 10.31 14.19"/><polygon class="cls-1" points="21.8 49.23 32.05 36.71 41.37 49.19 52.98 49.17 38.16 29.34 50.32 14.5 42.99 14.51 34.66 24.61 27.09 14.54 15.51 14.56 28.62 32.05 14.47 49.24 21.8 49.23"/><path class="cls-1" d="M.29,6.75A2.31,2.31,0,0,0,.39,7c0,.09.08.17.11.26s.07.15.11.23a5.22,5.22,0,0,0,.52.8,5.33,5.33,0,0,0,1,.88l.28.19a5.05,5.05,0,0,0,3.87.67A4.77,4.77,0,0,0,9.34,7.83a4.92,4.92,0,0,0,.81-3.31c0-.06,0-.12,0-.18s0-.18-.05-.28A2,2,0,0,0,10,3.83a.08.08,0,0,0,0,0s0,0,0,0a4.58,4.58,0,0,0-.48-1.16A5.23,5.23,0,0,0,7.86.88,4.78,4.78,0,0,0,4.11.11,4.92,4.92,0,0,0,.86,2.35,4.89,4.89,0,0,0,.13,6.18a4.74,4.74,0,0,0,.16.57"/></g></g></g></svg>